#!OML:ASF F:\VICON\USERDATA\INSTALL\rory3\rory3.ASF
:FULLY-SPECIFIED
:DEGREES
55
root 0.3448693191646739 18.590617190459373 22.97619231442745 6.1415816715387574 3.646616796835044 -3.381331083317741
lfemur -31.809784782795184 -3.0411096927748953 -17.12834983841886
ltibia 47.53868131640697
lfoot -2.061105120711683 -8.331439623646816
ltoes -19.49693750264607
rfemur 0.9792039360070675 4.060221911674432 32.775252600289335
rtibia 39.56767185774715
rfoot 24.483831197724086 -0.5171635392676377
rtoes 14.549520410451743
lowerback 11.741827296033204 2.135032985855999 5.030188979659852
upperback -3.0388133351248663 3.7473461864693736 0.726715841784751
thorax -8.341772372315917 1.5262384406707228 -3.4111950281268117
lowerneck -18.476729414645234 -3.349757798169642 -3.1517102505400727
upperneck 17.752274016386682 -3.9248915527125465 2.387093070760427
head 8.787413828594506 -1.7622499296448293 0.6838277957277967
lclavicle -1.723040759611025e-15 1.787795337092746e-15
lhumerus -70.01727778221004 -7.516056723611434 96.8799969430251
lradius 104.44629605845135
lwrist 35.26611795776709
lhand -25.69270002114281 1.5527586436091747
lfingers 7.12502
lthumb 0.9198716391670825 31.50255881829339
rclavicle -1.717538455265639e-15 1.79051175771403e-15
rhumerus -45.38291862271145 14.992211680032334 -96.875757292371
rradius 121.53992015368524
rwrist -7.277084622021786
rhand -16.317577247581802 39.47188230186781
rfingers 7.12502
rthumb 9.559445814855735 10.414141271289097
56
root 0.3400083847583799 18.529460255764516 24.113492489365527 6.036435980513251 3.3400571694303465 -4.489199405101841
lfemur -30.486352235500487 -2.6000113732103807 -16.189158229364644
ltibia 40.25477286350676
lfoot -1.3191723889583182 -8.88001712982288
ltoes -17.904922774870847
rfemur 0.678936803864179 5.168999631102409 33.818608478055324
rtibia 38.37003406383036
rfoot 25.240253803461897 -1.3979425263351652
rtoes 20.308696457898773
lowerback 12.068544089770096 2.292837603846333 5.8741226062405385
upperback -3.1297903442575157 4.1479328363192085 1.0442778191888138
thorax -8.626446711442231 1.6481891639469792 -3.685874006508318
lowerneck -18.308165025731725 -3.209076605977171 -3.2104590849890604
upperneck 17.61836674798691 -3.7304053435211353 2.315724090935374
head 8.758384375520018 -1.6919803830779443 0.6767677405086407
lclavicle -1.7252415982620147e-15 1.7861969540620174e-15
lhumerus -70.1807278197401 -6.76826329799412 96.4726718737078
lradius 106.47678370119709
lwrist 34.830833417634075
lhand -25.633561814657774 1.2831102810427235
lfingers 7.12502
lthumb 0.8841491918646663 31.140723539358664
rclavicle -1.719596048316425e-15 1.7894242192627864e-15
rhumerus -45.14877828616666 15.33930927711759 -96.9732209714103
rradius 121.60323140237381
rwrist -7.291766443328811
rhand -16.474745181484707 39.48814133742594
rfingers 7.12502
rthumb 9.251734016492154 10.263576909310247
57
root 0.33353708517315794 18.456155744617664 25.10000511670922 5.596872669460578 2.5599460549539854 -4.1660149628090135
lfemur -29.045049200043632 -1.9764240376687894 -17.06856022007245
ltibia 34.42690488118345
lfoot -1.0339593796011188 -9.06809863609142
ltoes -17.888698320560188
rfemur -0.2546269753847703 6.078013918534676 33.321630207619634
rtibia 38.25631476839352
rfoot 24.229413148825458 -2.7159498108142763
rtoes 20.486318189902768
lowerback 12.303748302183447 2.5482185355975124 5.202034476118032
upperback -2.8460708432796014 4.385727587640767 1.0286138656280899
thorax -8.615071062102556 1.7904158210961354 -3.415962716531253
lowerneck -18.27907038414554 -3.1008705161981007 -3.2641083030378537
upperneck 17.302342707911176 -3.5898103618373565 2.271732626470074
head 8.675002156426974 -1.6357983280451776 0.6855747096501278
lclavicle -1.7262002689663097e-15 1.785506113048258e-15
lhumerus -70.00007258051062 -6.144383674856745 96.34426835256771
lradius 108.44340757773229
lwrist 34.06989008218506
lhand -26.017665525688198 1.057613264130377
lfingers 7.12502
lthumb 0.5436949621408965 30.603496779742745
rclavicle -1.7203520080562026e-15 1.7889383418037357e-15
rhumerus -44.72472496155783 15.63951555114362 -96.89724936108134
rradius 121.35105158163691
rwrist -7.198450837747518
rhand -16.711809866469576 39.43905806745025
rfingers 7.12502
rthumb 8.89543802245666 10.080698253547624
58
root 0.3108033032188767 18.3482241208282 26.16407266681525 4.9887989920510485 3.181395660488553 -3.766499154825979
lfemur -27.69472801727047 -2.3913731947990953 -18.145861027685438
ltibia 30.40544160859997
lfoot -1.0366767354460615 -9.33661563240151
ltoes -17.072621757123017
rfemur -1.7555869829055197 5.421983793752364 32.58394411855079
rtibia 39.023166477856876
rfoot 22.874836890050098 -4.075487532918999
rtoes 23.092871576904447
lowerback 12.780473963280926 2.327536184442114 4.771470976460561
upperback -2.527642729284371 4.041193555068551 0.9536807353376868
thorax -8.675801334373189 1.7095546092561906 -3.158024975527453
lowerneck -18.30401793622352 -2.978893958778977 -3.2672054092330285
upperneck 16.96512048933199 -3.4259181699100223 2.1712077765406796
head 8.58165499568817 -1.5631886696799329 0.6752457686603919
lclavicle -1.7290506455486362e-15 1.7834498927074348e-15
lhumerus -69.07173637197617 -6.111654654428131 96.43480207620921
lradius 109.82377531016553
lwrist 33.414272255673524
lhand -26.047430555270697 0.9364594513014772
lfingers 7.12502
lthumb 0.43432136733368365 30.004361091665853
rclavicle -1.7176361087284676e-15 1.7907402606860518e-15
rhumerus -44.21089683366196 15.456057969018126 -96.76878809638347
rradius 120.81177449382622
rwrist -7.255326099516823
rhand -16.831802305421913 39.45771766738588
rfingers 7.12502
rthumb 8.776500599700924 9.925101600185757
59
root 0.28908824727981597 18.1601550417575 27.219963804770813 4.535424701952081 3.2604450356890786 -3.371649178779961
lfemur -26.305012694097073 -2.4024168592401316 -19.060093764663016
ltibia 28.192726737429634
lfoot -1.7388750329331515 -10.267348042256515
ltoes -15.819967166278174
rfemur -3.1243601399792844 5.190498800954343 31.844052054622985
rtibia 40.751883095416105
rfoot 21.578717807457508 -5.070468529031591
rtoes 19.048785048355285
lowerback 13.03317277002647 2.325709834166038 4.1692041749488435
upperback -2.1612662804273555 3.9646894783541202 0.9058988417411892
thorax -8.615442126510631 1.7220072226773113 -2.850495421666752
lowerneck -18.4226827871278 -2.9031940993768255 -3.2506355709928414
upperneck 16.66126297272654 -3.3013679022596483 2.0887100206038784
head 8.512049958582233 -1.5059155585511297 0.657398882056746
lclavicle -1.7318244294418186e-15 1.7814437966445594e-15
lhumerus -67.63865757577086 -6.443267476503984 96.81708634176856
lradius 110.81733902234316
lwrist 33.48660938131328
lhand -26.255445572692732 1.2535043048991958
lfingers 7.12502
lthumb 0.23654657443345029 30.17804911273855
rclavicle -1.7162918735545035e-15 1.7913456967143886e-15
rhumerus -44.03470305493552 14.73422557953769 -96.68774269779885
rradius 120.26156275616736
rwrist -7.531012708403198
rhand -17.055976652257765 39.39506822242078
rfingers 7.12502
rthumb 8.690480312634975 9.788717037197141
60
root 0.25804952707443674 17.92636703680584 28.072930223933056 3.382169343062671 4.188370720308945 -3.0468687423347984
lfemur -24.741386173537975 -2.7399238639663492 -19.813262002235607
ltibia 27.961852755842724
lfoot -3.749460990300343 -11.274916354529534
ltoes -11.545662334432222
rfemur -4.454849918450643 3.7579186219759992 31.005015201058832
rtibia 43.18372387842316
rfoot 20.48401419100192 -5.858765540178634
rtoes 16.561184637133945
lowerback 13.92625350857414 1.983450899765883 3.7862002261523386
upperback -1.744522542411406 3.369819358056361 0.8470406852261261
thorax -8.87269062281779 1.4675408104888452 -2.5088541660000265
lowerneck -18.353193991609004 -2.8225068699897027 -3.192324803563252
upperneck 16.51603274676841 -3.191070535546998 2.0505459431993343
head 8.486606074625897 -1.4415116214957617 0.6597921640864788
lclavicle -1.7312202630052738e-15 1.7818930773602715e-15
lhumerus -65.64239250150295 -7.277622677772478 97.33197417446044
lradius 111.25937412856324
lwrist 34.18571858719346
lhand -26.850865899306246 2.5049985588959847
lfingers 7.12502
lthumb -0.47823267866687735 31.22367833829047
rclavicle -1.7181232458035982e-15 1.7900521165689532e-15
rhumerus -44.18653278866686 13.704233707174959 -96.71948985164869
rradius 119.78611122177642
rwrist -8.069115507883895
rhand -17.122545722941084 39.50282085017292
rfingers 7.12502
rthumb 8.917756707961754 9.886043224609855
61
root 0.23321218690281573 17.723264526112015 29.125814682723636 2.739119934702743 5.051268676628589 -2.375107642525108
lfemur -23.67526256511811 -2.8063761583688045 -20.960750946456873
ltibia 29.83170812269354
lfoot -6.477064369650248 -11.06095772271502
ltoes -3.10927602651412
rfemur -6.222035998986577 2.4770655309818075 29.61088518549452
rtibia 46.21667909692184
rfoot 19.17120951771099 -6.27453376461511
rtoes 15.081920868031812
lowerback 14.412266543491626 1.6529581970955713 2.909505206530458
upperback -1.4509837379641175 2.8063936493889967 0.6680391016784504
thorax -9.054105371475782 1.241960989669456 -1.9341991378278145
lowerneck -18.588605337175917 -2.833585621055452 -3.3170558058086144
upperneck 16.541818322567806 -3.212891034743824 2.1739966561640744
head 8.540529625978634 -1.423150550792466 0.7188411537797585
lclavicle -1.7280837138661156e-15 1.784164954300828e-15
lhumerus -63.48106402275354 -8.410675229405761 97.87903575479866
lradius 111.36752929315412
lwrist 34.26045862493941
lhand -27.294679391047545 2.9659824019229113
lfingers 7.12502
lthumb -0.8474430493512581 31.938056786989666
rclavicle -1.7184660502527982e-15 1.7898149083101456e-15
rhumerus -44.23977752141762 12.65474501018501 -96.60027258854714
rradius 119.30791583745201
rwrist -8.570929857843645
rhand -17.254757299394765 39.41199790703397
rfingers 7.12502
rthumb 8.852660916304842 9.624314182722722
